# xmcd
# Copyright (C) 1995-1998 Ti Kan
#
# Track frame offsets:
#       150
#       16580
#       34090
#       53165
#       71720
#       89592
#       106415
#       125517
#       141607
#       158937
#       172110
#       188450
#
# Disc length: 2709 seconds
#
# Revision: 2
# Processed by: cddbd v1.5.1PL2 Copyright (c) Steve Scherf et al.
# Submitted via: CD-Transfer v1.0
#
DISCID=a60a930c
DTITLE=Roots 66 - Play Back
DYEAR=2006
DGENRE=
TTITLE0=Get It On
TTITLE1=The Price Of Love
TTITLE2=Sweet Old Song
TTITLE3=Alright Guy
TTITLE4=While My Guitar Gently Weeps
TTITLE5=She Knows
TTITLE6=No Other Baby
TTITLE7=20th Century Boy
TTITLE8=The Spider And The Fly
TTITLE9=Gimme Some Lovin'
TTITLE10=Poor Poor Pitful Me
TTITLE11=If You Don't Love Me
EXTD=
EXTT0=
EXTT1=
EXTT2=
EXTT3=
EXTT4=
EXTT5=
EXTT6=
EXTT7=
EXTT8=
EXTT9=
EXTT10=
EXTT11=
PLAYORDER=
